<?xml version="1.0" encoding="UTF-8" standalone="no"?>
<!DOCTYPE svg PUBLIC "-//W3C//DTD SVG 1.1//EN" "http://www.w3.org/Graphics/SVG/1.1/DTD/svg11.dtd">
<svg width="100%" height="100%" viewBox="0 0 32 32" version="1.1" xmlns="http://www.w3.org/2000/svg" xmlns:xlink="http://www.w3.org/1999/xlink" xml:space="preserve" xmlns:serif="http://www.serif.com/" style="fill-rule:evenodd;clip-rule:evenodd;stroke-linejoin:round;">
    <g transform="matrix(1.06667,0,0,1.06667,-1.06667,-1.06667)">
        <rect x="1" y="1" width="30" height="30" style="fill:url(#_Linear1);"/>
        <path d="M31,1L1,1L1,31L31,31L31,1ZM3,3L3,29L29,29L29,3L3,3Z" style="fill:url(#_Linear2);"/>
    </g>
    <g>
        <path d="M16,1L16,31" style="fill:none;fill-rule:nonzero;stroke:url(#_Linear3);stroke-width:2px;"/>
        <path d="M1,16L31,16" style="fill:none;fill-rule:nonzero;stroke:url(#_Linear4);stroke-width:2px;"/>
    </g>
    <g transform="matrix(1,0,0,1,-0.174461,-0.316696)">
        <g transform="matrix(1,0,0,1,0.116748,-0.229829)">
            <path d="M27,22L20,22" style="fill:none;fill-rule:nonzero;stroke:url(#_Linear5);stroke-width:2px;"/>
        </g>
        <g transform="matrix(1,0,0,1,0.116748,-0.229829)">
            <path d="M27,26L20,26" style="fill:none;fill-rule:nonzero;stroke:url(#_Linear6);stroke-width:2px;"/>
        </g>
    </g>
    <g transform="matrix(1,0,0,1,0.320491,-0.316696)">
        <g transform="matrix(1,0,0,1,-0.754279,-0.229829)">
            <path d="M6,21L12,27" style="fill:none;fill-rule:nonzero;stroke:url(#_Linear7);stroke-width:2px;"/>
        </g>
        <g transform="matrix(1,0,0,1,-0.754279,-0.229829)">
            <path d="M12,21L6,27" style="fill:none;fill-rule:nonzero;stroke:url(#_Linear8);stroke-width:2px;"/>
        </g>
    </g>
    <g transform="matrix(1,0,0,1,-0.0577127,-0.41774)">
        <path d="M27,9L20,9" style="fill:none;fill-rule:nonzero;stroke:url(#_Linear9);stroke-width:2px;"/>
    </g>
    <g transform="matrix(1,0,0,1,0.0424751,-0.155413)">
        <g transform="matrix(1,0,0,1,0.523737,-0.262327)">
            <path d="M8,5L8,13" style="fill:none;fill-rule:nonzero;stroke:url(#_Linear10);stroke-width:2px;"/>
        </g>
        <g transform="matrix(1,0,0,1,0.523737,-0.262327)">
            <path d="M12,9L4,9" style="fill:none;fill-rule:nonzero;stroke:url(#_Linear11);stroke-width:2px;"/>
        </g>
    </g>
    <defs>
        <linearGradient id="_Linear1" x1="0" y1="0" x2="1" y2="0" gradientUnits="userSpaceOnUse" gradientTransform="matrix(1.95943e-15,32,-32,1.95943e-15,16,0)"><stop offset="0" style="stop-color:rgb(44,66,63);stop-opacity:1"/><stop offset="1" style="stop-color:rgb(59,88,85);stop-opacity:1"/></linearGradient>
        <linearGradient id="_Linear2" x1="0" y1="0" x2="1" y2="0" gradientUnits="userSpaceOnUse" gradientTransform="matrix(8.49831e-15,30,-30,8.49831e-15,16,1)"><stop offset="0" style="stop-color:rgb(197,197,197);stop-opacity:1"/><stop offset="1" style="stop-color:rgb(228,228,228);stop-opacity:1"/></linearGradient>
        <linearGradient id="_Linear3" x1="0" y1="0" x2="1" y2="0" gradientUnits="userSpaceOnUse" gradientTransform="matrix(8.49831e-15,30,-30,8.49831e-15,16,1)"><stop offset="0" style="stop-color:rgb(197,197,197);stop-opacity:1"/><stop offset="1" style="stop-color:rgb(228,228,228);stop-opacity:1"/></linearGradient>
        <linearGradient id="_Linear4" x1="0" y1="0" x2="1" y2="0" gradientUnits="userSpaceOnUse" gradientTransform="matrix(8.49831e-15,30,-30,8.49831e-15,16,1)"><stop offset="0" style="stop-color:rgb(197,197,197);stop-opacity:1"/><stop offset="1" style="stop-color:rgb(228,228,228);stop-opacity:1"/></linearGradient>
        <linearGradient id="_Linear5" x1="0" y1="0" x2="1" y2="0" gradientUnits="userSpaceOnUse" gradientTransform="matrix(8.49831e-15,30,-30,8.49831e-15,16,1)"><stop offset="0" style="stop-color:rgb(197,197,197);stop-opacity:1"/><stop offset="1" style="stop-color:rgb(228,228,228);stop-opacity:1"/></linearGradient>
        <linearGradient id="_Linear6" x1="0" y1="0" x2="1" y2="0" gradientUnits="userSpaceOnUse" gradientTransform="matrix(8.49831e-15,30,-30,8.49831e-15,16,1)"><stop offset="0" style="stop-color:rgb(197,197,197);stop-opacity:1"/><stop offset="1" style="stop-color:rgb(228,228,228);stop-opacity:1"/></linearGradient>
        <linearGradient id="_Linear7" x1="0" y1="0" x2="1" y2="0" gradientUnits="userSpaceOnUse" gradientTransform="matrix(8.49831e-15,30,-30,8.49831e-15,16,1)"><stop offset="0" style="stop-color:rgb(197,197,197);stop-opacity:1"/><stop offset="1" style="stop-color:rgb(228,228,228);stop-opacity:1"/></linearGradient>
        <linearGradient id="_Linear8" x1="0" y1="0" x2="1" y2="0" gradientUnits="userSpaceOnUse" gradientTransform="matrix(8.49831e-15,30,-30,8.49831e-15,16,1)"><stop offset="0" style="stop-color:rgb(197,197,197);stop-opacity:1"/><stop offset="1" style="stop-color:rgb(228,228,228);stop-opacity:1"/></linearGradient>
        <linearGradient id="_Linear9" x1="0" y1="0" x2="1" y2="0" gradientUnits="userSpaceOnUse" gradientTransform="matrix(8.49831e-15,30,-30,8.49831e-15,16,1)"><stop offset="0" style="stop-color:rgb(197,197,197);stop-opacity:1"/><stop offset="1" style="stop-color:rgb(228,228,228);stop-opacity:1"/></linearGradient>
        <linearGradient id="_Linear10" x1="0" y1="0" x2="1" y2="0" gradientUnits="userSpaceOnUse" gradientTransform="matrix(8.49831e-15,30,-30,8.49831e-15,16,1)"><stop offset="0" style="stop-color:rgb(197,197,197);stop-opacity:1"/><stop offset="1" style="stop-color:rgb(228,228,228);stop-opacity:1"/></linearGradient>
        <linearGradient id="_Linear11" x1="0" y1="0" x2="1" y2="0" gradientUnits="userSpaceOnUse" gradientTransform="matrix(8.49831e-15,30,-30,8.49831e-15,16,1)"><stop offset="0" style="stop-color:rgb(197,197,197);stop-opacity:1"/><stop offset="1" style="stop-color:rgb(228,228,228);stop-opacity:1"/></linearGradient>
    </defs>
</svg>